<svg xmlns="http://www.w3.org/2000/svg" viewBox="0 0 800 24" fill="none">
  <!-- Hand-drawn brush stroke divider  organic Z-shape gesture -->
  <path d="M0 12 Q50 4 100 14 Q150 22 200 10 Q250 2 300 16 Q350 26 400 12 Q450 2 500 18 Q550 26 600 10 Q650 2 700 16 Q750 22 800 12" stroke="#3d8a7a" stroke-width="2" fill="none" opacity="0.5" stroke-linecap="round"/>
  <!-- Secondary thin stroke -->
  <path d="M0 14 Q50 8 100 16 Q150 22 200 12 Q250 4 300 18 Q350 26 400 14 Q450 6 500 20 Q550 26 600 12 Q650 4 700 18 Q750 22 800 14" stroke="#3d8a7a" stroke-width="0.8" fill="none" opacity="0.25" stroke-linecap="round"/>
  <!-- Gold accent dot left -->
  <circle cx="8" cy="12" r="3" fill="#c9a227" opacity="0.6"/>
  <!-- Gold accent dot right -->
  <circle cx="792" cy="12" r="3" fill="#c9a227" opacity="0.6"/>
</svg>
